<svg viewBox="0 0 36 36" fill="none" xmlns="http://www.w3.org/2000/svg">
<path fill-rule="evenodd" clip-rule="evenodd" d="M25.807 28.3047C23.0888 30.4789 19.641 31.779 15.8895 31.779C7.11396 31.779 0 24.665 0 15.8895C0 7.11396 7.11396 0 15.8895 0C24.665 0 31.779 7.11396 31.779 15.8895C31.779 19.6414 30.4786 23.0896 28.3039 25.808L34.7921 32.2961C35.4815 32.9856 35.4815 34.1035 34.7921 34.7929C34.1026 35.4824 32.9848 35.4824 32.2953 34.7929L25.807 28.3047ZM3.531 15.8895C3.531 9.06408 9.06408 3.531 15.8895 3.531C22.7149 3.531 28.248 9.06408 28.248 15.8895C28.248 19.2181 26.932 22.2394 24.792 24.4614C24.7306 24.5084 24.6716 24.56 24.6154 24.6162C24.5592 24.6724 24.5077 24.7314 24.4607 24.7927C22.2387 26.9323 19.2177 28.248 15.8895 28.248C9.06408 28.248 3.531 22.7149 3.531 15.8895Z" fill="#A8DADC"/>
</svg>
