<svg  viewBox="0 0 40 42"  xmlns="http://www.w3.org/2000/svg">
<path  d="M19.0476 0C17.9956 0 17.1429 0.854729 17.1429 1.90909C17.1429 2.96345 17.9956 3.81818 19.0476 3.81818C23.5942 3.81818 27.9545 5.6284 31.1694 8.85062C34.3844 12.0728 36.1905 16.4431 36.1905 21C36.1905 25.5569 34.3844 29.9272 31.1694 33.1494C27.9545 36.3716 23.5942 38.1818 19.0476 38.1818C17.9956 38.1818 17.1429 39.0365 17.1429 40.0909C17.1429 41.1453 17.9956 42 19.0476 42C24.6045 42 29.9339 39.7875 33.8632 35.8492C37.7925 31.911 40 26.5695 40 21C40 15.4305 37.7925 10.089 33.8632 6.15076C29.9339 2.21249 24.6045 0 19.0476 0ZM1.90476 19.0909C0.852791 19.0909 0 19.9456 0 21C0 22.0544 0.852791 22.9091 1.90476 22.9091H20.1634L13.8912 29.1955C13.1474 29.9411 13.1474 31.1498 13.8912 31.8954C14.6351 32.6409 15.8411 32.6409 16.585 31.8954L26.1088 22.3499C26.8526 21.6044 26.8526 20.3956 26.1088 19.6501L16.585 10.1046C15.8411 9.35907 14.6351 9.35907 13.8912 10.1046C13.1474 10.8502 13.1474 12.0589 13.8912 12.8045L20.1634 19.0909H1.90476Z"/>
</svg>
