<svg  viewBox="0 0 47 40" fill="#F1FAEE" xmlns="http://www.w3.org/2000/svg">
<path fill-rule="evenodd" clip-rule="evenodd" d="M2.86791 26.3679C4.70421 24.5316 7.19475 23.5 9.79167 23.5H23.5C26.0969 23.5 28.5875 24.5316 30.4238 26.3679C32.26 28.2042 33.2917 30.6948 33.2917 33.2917V37.2083C33.2917 38.2899 32.4149 39.1667 31.3333 39.1667C30.2518 39.1667 29.375 38.2899 29.375 37.2083V33.2917C29.375 31.7335 28.756 30.2392 27.6543 29.1374C26.5525 28.0356 25.0581 27.4167 23.5 27.4167H9.79167C8.23352 27.4167 6.73919 28.0356 5.63741 29.1374C4.53564 30.2392 3.91667 31.7335 3.91667 33.2917V37.2083C3.91667 38.2899 3.03989 39.1667 1.95833 39.1667C0.876776 39.1667 0 38.2899 0 37.2083V33.2917C0 30.6948 1.03162 28.2042 2.86791 26.3679Z" />
<path fill-rule="evenodd" clip-rule="evenodd" d="M16.6458 3.91667C13.4011 3.91667 10.7708 6.54699 10.7708 9.79167C10.7708 13.0363 13.4011 15.6667 16.6458 15.6667C19.8905 15.6667 22.5208 13.0363 22.5208 9.79167C22.5208 6.54699 19.8905 3.91667 16.6458 3.91667ZM6.85413 9.79167C6.85413 4.38388 11.238 0 16.6458 0C22.0536 0 26.4375 4.38388 26.4375 9.79167C26.4375 15.1995 22.0536 19.5833 16.6458 19.5833C11.238 19.5833 6.85413 15.1995 6.85413 9.79167Z" />
<path fill-rule="evenodd" clip-rule="evenodd" d="M39.1667 9.79175C40.2483 9.79175 41.125 10.6685 41.125 11.7501V23.5001C41.125 24.5816 40.2483 25.4584 39.1667 25.4584C38.0851 25.4584 37.2084 24.5816 37.2084 23.5001V11.7501C37.2084 10.6685 38.0851 9.79175 39.1667 9.79175Z" />
<path fill-rule="evenodd" clip-rule="evenodd" d="M31.3334 17.6251C31.3334 16.5435 32.2101 15.6667 33.2917 15.6667H45.0417C46.1233 15.6667 47 16.5435 47 17.6251C47 18.7066 46.1233 19.5834 45.0417 19.5834H33.2917C32.2101 19.5834 31.3334 18.7066 31.3334 17.6251Z" />
</svg>
