<svg viewBox="0 0 49 39" xmlns="http://www.w3.org/2000/svg">
<path d="M18.4468 19.5647C18.4468 21.3423 19.1753 22.9617 20.3502 24.1346C21.5252 25.3095 23.1425 26.038 24.9202 26.038C26.6978 26.038 28.3171 25.3095 29.4901 24.1346C30.665 22.9596 31.3935 21.3423 31.3935 19.5647C31.3935 17.787 30.665 16.1677 29.4901 14.9948C28.3151 13.8198 26.6978 13.0913 24.9202 13.0913C23.1425 13.0913 21.5232 13.8198 20.3502 14.9948C19.1753 16.1697 18.4468 17.787 18.4468 19.5647ZM2.61244 19.3171C2.61244 21.4965 2.7829 23.2843 3.08932 24.9402C3.39574 26.592 3.84826 28.1464 4.40834 29.8388C5.15308 32.0913 6.10075 33.6904 7.23308 35.5979L7.31222 35.7318C7.53747 36.1113 7.79518 36.3467 8.05696 36.4684C8.23959 36.5537 8.42628 36.5841 8.60486 36.5719C8.78749 36.5577 8.96404 36.5009 9.12029 36.4076C9.31713 36.2899 9.47947 36.1194 9.57282 35.9165C9.68849 35.6689 9.71487 35.4416 9.68037 35.2326C9.64181 34.9972 9.52412 34.7557 9.36583 34.5163C8.12392 32.6433 7.0058 30.2609 6.22047 27.7487C5.48994 25.413 5.0435 22.9556 5.0435 20.6787C5.0435 18.1543 5.1267 16.2915 5.44124 14.4732C5.7578 12.6489 6.30164 10.9058 7.22293 8.63301C7.74445 7.34848 8.33091 6.37849 8.81793 5.5749C9.43483 4.55621 9.84474 3.88047 9.59514 3.25748C9.4815 2.97542 9.33134 2.80902 9.15073 2.71973C8.92548 2.60812 8.60486 2.57362 8.2193 2.57362C8.04478 2.57362 7.89867 2.66088 7.77083 2.78061C7.58211 2.96121 7.41165 3.23516 7.26351 3.4807C5.81868 5.87321 4.65185 8.33673 3.85029 10.9464C3.05076 13.5479 2.61041 16.3097 2.61041 19.313L2.61244 19.3171ZM39.6019 3.48273C39.6019 4.17268 39.8779 4.61506 40.2979 5.28878C40.5719 5.72913 40.8966 6.24862 41.2456 6.95075C41.5358 7.53517 41.8057 8.1054 42.0654 8.71824C42.315 9.30469 42.5524 9.92768 42.7878 10.6339C43.1409 11.6911 43.421 12.7179 43.6422 13.7589C43.8654 14.8081 44.0318 15.8815 44.1535 17.024C44.3483 18.8524 44.3098 20.7822 44.0825 22.6857C43.8451 24.6865 43.3946 26.6752 42.7878 28.4995C42.5626 29.1793 42.3191 29.8104 42.0634 30.4111C41.7976 31.0341 41.5236 31.6185 41.2436 32.1806C40.9067 32.8563 40.5881 33.3677 40.3162 33.806C39.89 34.4919 39.5978 34.9587 39.5978 35.6466C39.5978 35.8597 39.7176 36.0727 39.9286 36.2391C40.1762 36.4319 40.5394 36.5537 41.0001 36.5537C41.3105 36.5537 41.8178 35.9327 42.3597 35.0926C43.4616 33.386 44.4539 30.9285 44.7907 30.0235C46.1341 26.4114 46.7449 22.4158 46.6069 18.4547C46.473 14.5483 45.6105 10.6805 44.0095 7.25514C43.8451 6.90407 43.8552 6.92437 43.8491 6.91422C43.1917 5.48968 41.8503 2.57971 41.0001 2.57971C40.5333 2.57971 40.1498 2.69335 39.8982 2.88816C39.7094 3.03426 39.5978 3.24125 39.5978 3.48679L39.6019 3.48273ZM10.5306 19.0695C10.5306 20.3398 10.626 21.3321 10.8168 22.2372C11.0095 23.1544 11.2997 24.0027 11.6873 24.9706C11.9349 25.5936 12.3002 26.4256 12.7831 27.1115C13.189 27.6878 13.6638 28.1485 14.1813 28.2012C14.4167 28.2256 14.65 28.1525 14.8449 28.0206C15.062 27.8745 15.2284 27.6594 15.3014 27.424C15.4942 26.8091 15.2223 26.4053 14.9159 25.9528C14.8428 25.8432 14.7677 25.7336 14.7312 25.6768C13.5725 23.8931 12.9698 21.6122 12.9556 19.3455C12.9414 17.1113 13.4994 14.873 14.6602 13.1177C14.7028 13.0548 14.7779 12.9432 14.853 12.8336C15.1655 12.3811 15.4678 11.9427 15.3583 11.4293C15.2771 11.0478 15.131 10.8165 14.9341 10.6927C14.6987 10.5446 14.3457 10.4898 13.9114 10.4898C13.3351 10.4898 12.633 11.5491 12.0059 12.9493C11.1293 14.9095 10.5286 17.4481 10.5286 19.0655L10.5306 19.0695ZM34.2832 11.6465C34.2832 12.0706 34.4983 12.3709 34.7114 12.6692C34.7641 12.7443 34.8189 12.8194 34.8859 12.9188C35.9249 14.4651 36.5357 16.33 36.7041 18.2375C36.8746 20.1552 36.5965 22.1297 35.8619 23.8768C35.5576 24.6013 35.2024 25.1959 34.8899 25.7154C34.5551 26.2754 34.2832 26.73 34.2832 26.9837C34.2832 27.3124 34.4049 27.6046 34.6038 27.8197C34.8047 28.0368 35.0888 28.1789 35.4074 28.2032C36.0994 28.256 36.4748 27.6777 36.8259 27.1379C36.8766 27.0608 36.9273 26.9816 36.9841 26.8984C38.4107 24.7636 39.0966 22.1905 39.1189 19.6032C39.1412 16.8962 38.4371 14.179 37.0917 11.9346C36.8137 11.4699 37.1323 11.9996 36.9679 11.7236H36.9638C36.4525 10.8632 36.2292 10.4898 35.1923 10.4898C34.9955 10.4898 34.7905 10.6197 34.62 10.8124C34.4171 11.0458 34.2852 11.3522 34.2852 11.6444L34.2832 11.6465ZM33.37 13.623C33.0027 13.1075 32.6334 12.5901 32.6334 11.6465C32.6334 10.9545 32.9276 10.2524 33.3822 9.73287C33.8469 9.2012 34.4922 8.84202 35.1903 8.84202C37.1627 8.84202 37.532 9.46298 38.3803 10.8895H38.3782L38.5 11.0925C39.9996 13.5946 40.7829 16.6141 40.7586 19.6174C40.7342 22.5132 39.959 25.4049 38.3478 27.8156C38.3032 27.8826 38.2524 27.9597 38.2037 28.0368C37.5949 28.9744 36.9436 29.9748 35.2836 29.849C34.5389 29.7922 33.8712 29.4553 33.3923 28.9358C32.9215 28.4265 32.6334 27.7446 32.6334 26.9837C32.6334 26.2836 33.0108 25.6504 33.4776 24.8712C33.7637 24.3943 34.0884 23.8484 34.3461 23.2376C34.9731 21.7481 35.2065 20.0456 35.0604 18.3775C34.9143 16.7338 34.3989 15.1388 33.5202 13.832C33.4816 13.7752 33.4268 13.6981 33.372 13.6209L33.37 13.623ZM9.20552 22.572C8.98839 21.5432 8.88084 20.4454 8.88084 19.0695C8.88084 17.2574 9.54035 14.4408 10.5063 12.2816C11.3829 10.3214 12.5741 8.84202 13.9134 8.84202C14.6358 8.84202 15.2751 8.96378 15.8128 9.30266C16.3871 9.66387 16.7889 10.23 16.9715 11.0904C17.2272 12.2938 16.7239 13.0223 16.2085 13.7711C16.1598 13.8401 16.1131 13.9091 16.034 14.0288C15.0559 15.5061 14.5871 17.4157 14.5993 19.3414C14.6115 21.3037 15.1249 23.266 16.1111 24.7839C16.1903 24.9077 16.2349 24.9706 16.2775 25.0335C16.8214 25.8371 17.3063 26.5514 16.8761 27.9171C16.6915 28.5036 16.2897 29.0292 15.7682 29.3822C15.2669 29.7211 14.6561 29.9058 14.0149 29.8388C12.9313 29.7252 12.0871 28.9804 11.4377 28.0592C10.8675 27.2475 10.4454 26.2896 10.1613 25.5774C9.73922 24.5201 9.42062 23.5907 9.20755 22.572H9.20552ZM38.8998 6.1573C38.3275 5.24008 37.9521 4.63738 37.9521 3.4807C37.9521 2.69538 38.2991 2.03992 38.8896 1.58131C39.4253 1.16328 40.162 0.923828 41.0041 0.923828C42.9076 0.923828 44.5452 4.4791 45.3467 6.22021C45.4665 6.47793 45.432 6.4069 45.501 6.55504C47.1974 10.1874 48.1106 14.2764 48.2526 18.3999C48.3967 22.568 47.7514 26.7787 46.333 30.5937C45.9758 31.5515 44.9246 34.1551 43.7477 35.9794C42.9238 37.2558 41.9822 38.2014 41.0041 38.2014C40.1539 38.2014 39.4416 37.9417 38.9221 37.5379C38.3011 37.0549 37.9521 36.367 37.9521 35.6446C37.9521 34.4899 38.3437 33.8588 38.9201 32.9335C39.1697 32.5317 39.4619 32.0629 39.7703 31.4419C40.0483 30.8819 40.3121 30.3218 40.5516 29.7617C40.8012 29.1773 41.0285 28.5847 41.2294 27.98C41.7955 26.2734 42.2196 24.3943 42.4469 22.4868C42.66 20.6929 42.6985 18.8869 42.5179 17.1924C42.4023 16.1129 42.244 15.0942 42.0329 14.0958C41.8199 13.0913 41.5561 12.1193 41.2294 11.1432C41.0183 10.5121 40.7951 9.92971 40.5516 9.35745C40.3182 8.80955 40.0605 8.26368 39.7703 7.68128C39.4497 7.03395 39.1514 6.5591 38.8998 6.15527V6.1573ZM1.47199 25.2344C1.14325 23.469 0.962646 21.5838 0.962646 19.3151C0.962646 16.1514 1.43141 13.2273 2.27964 10.4634C3.12584 7.70766 4.34543 5.12644 5.85318 2.63044C6.05407 2.29764 6.29353 1.91817 6.6385 1.58943C7.04435 1.20184 7.5537 0.923828 8.22133 0.923828C8.83417 0.923828 9.38613 0.998911 9.88127 1.24242C10.4211 1.50826 10.8431 1.94252 11.1252 2.64465C11.6812 4.02252 11.0988 4.98236 10.2262 6.42314C9.7798 7.16179 9.23799 8.05467 8.753 9.24787C7.87635 11.409 7.36092 13.0527 7.06668 14.7472C6.77243 16.4477 6.69532 18.2355 6.69532 20.6767C6.69532 22.7871 7.11335 25.0741 7.79518 27.2576C8.53586 29.6237 9.58094 31.8579 10.7396 33.6072C11.0156 34.0232 11.2246 34.4716 11.3058 34.9688C11.3931 35.4924 11.3363 36.0403 11.0684 36.6125C10.833 37.1178 10.4393 37.5399 9.95838 37.824C9.58905 38.0431 9.16494 38.1811 8.72256 38.2136C8.27409 38.2461 7.80939 38.171 7.36295 37.962C6.81911 37.7083 6.3057 37.2599 5.89579 36.5679L5.81665 36.4339C4.63359 34.4412 3.64331 32.7691 2.84378 30.3543C2.26949 28.6152 1.80073 27.0039 1.47199 25.2365V25.2344ZM19.1834 25.2994C17.7102 23.8261 16.797 21.7948 16.797 19.5626C16.797 17.3304 17.7122 15.2991 19.1834 13.8259C20.6567 12.3526 22.688 11.4395 24.9202 11.4395C27.1523 11.4395 29.1836 12.3547 30.6569 13.8259C32.1301 15.2991 33.0433 17.3304 33.0433 19.5626C33.0433 21.7948 32.1281 23.8261 30.6569 25.2994C29.1836 26.7726 27.1523 27.6858 24.9202 27.6858C22.688 27.6858 20.6567 26.7706 19.1834 25.2994Z"/>
</svg>
