<svg viewBox="0 0 47 47" xmlns="http://www.w3.org/2000/svg">
<path fill-rule="evenodd" clip-rule="evenodd" d="M7.05 4.7C6.42674 4.7 5.82901 4.94759 5.3883 5.3883C4.94759 5.82901 4.7 6.42674 4.7 7.05V38.9766L10.0883 33.5883C10.529 33.1476 11.1267 32.9 11.75 32.9H39.95C40.5733 32.9 41.171 32.6524 41.6117 32.2117C42.0524 31.771 42.3 31.1733 42.3 30.55V7.05C42.3 6.42674 42.0524 5.82901 41.6117 5.3883C41.171 4.94759 40.5733 4.7 39.95 4.7H7.05ZM2.0649 2.0649C3.38703 0.742765 5.18022 0 7.05 0H39.95C41.8198 0 43.613 0.742766 44.9351 2.0649C46.2572 3.38703 47 5.18022 47 7.05V30.55C47 32.4198 46.2572 34.213 44.9351 35.5351C43.613 36.8572 41.8198 37.6 39.95 37.6H12.7234L4.0117 46.3117C3.33961 46.9838 2.32883 47.1848 1.45069 46.8211C0.572559 46.4574 0 45.6005 0 44.65V7.05C0 5.18022 0.742765 3.38703 2.0649 2.0649Z"/>
</svg>
