<svg viewBox="0 0 47 52" xmlns="http://www.w3.org/2000/svg">
<path d="M24.9428 0.496574C24.0942 -0.165525 22.9058 -0.165525 22.0572 0.496574L0.90724 16.9981C0.334814 17.4448 1.90735e-06 18.1315 1.90735e-06 18.8589V44.79C1.90735e-06 46.6656 0.742769 48.4644 2.0649 49.7907C3.38703 51.117 5.18022 51.8621 7.05 51.8621H39.95C41.8198 51.8621 43.613 51.117 44.9351 49.7907C46.2572 48.4644 47 46.6656 47 44.79V18.8589C47 18.1315 46.6652 17.4448 46.0928 16.9981L24.9428 0.496574ZM4.7 44.79V20.0119L23.5 5.34382L42.3 20.0119V44.79C42.3 45.4152 42.0524 46.0148 41.6117 46.4569C41.171 46.899 40.5733 47.1473 39.95 47.1473H32.9537V26.111C32.9537 24.8181 31.8955 23.77 30.5902 23.77H16.4091C15.1038 23.77 14.0456 24.8181 14.0456 26.111V47.1473H7.05C6.42674 47.1473 5.82901 46.899 5.3883 46.4569C4.94759 46.0148 4.7 45.4152 4.7 44.79ZM18.7726 47.1473V28.452H28.2267V47.1473H18.7726Z"/>
</svg>
