<svg viewBox="0 0 47 44" xmlns="http://www.w3.org/2000/svg">
<path d="M26.3581 2.83858C26.3581 1.27088 25.0785 0 23.5 0C21.9215 0 20.6419 1.27088 20.6419 2.83858V40.5287C20.6419 42.0964 21.9215 43.3673 23.5 43.3673C25.0785 43.3673 26.3581 42.0964 26.3581 40.5287V2.83858ZM44.1417 18.1357C45.7202 18.1357 46.9998 19.4066 46.9998 20.9743V41.0023C46.9998 42.57 45.7202 43.8409 44.1417 43.8409C42.5632 43.8409 41.2836 42.57 41.2836 41.0023V20.9743C41.2836 19.4066 42.5632 18.1357 44.1417 18.1357ZM2.85802 24.4434C4.4365 24.4434 5.71613 25.7142 5.71613 27.2819V40.5287C5.71613 42.0964 4.4365 43.3673 2.85802 43.3673C1.27953 43.3673 -9.15527e-05 42.0964 -9.15527e-05 40.5287V27.2819C-9.15527e-05 25.7142 1.27953 24.4434 2.85802 24.4434Z" />
</svg>
