<svg viewBox="0 0 47 44" xmlns="http://www.w3.org/2000/svg">
<path fill-rule="evenodd" clip-rule="evenodd" d="M8.46041 0C10.0179 0 11.2804 1.26257 11.2804 2.82003V15.9802C11.2804 17.5376 10.0179 18.8002 8.46041 18.8002C6.90295 18.8002 5.64038 17.5376 5.64038 15.9802V2.82003C5.64038 1.26257 6.90295 0 8.46041 0ZM11.2804 30.0805H14.1001C15.6576 30.0805 16.9202 28.8179 16.9202 27.2605C16.9202 25.703 15.6576 24.4404 14.1001 24.4404H8.46041H2.82003C1.26257 24.4404 0 25.703 0 27.2605C0 28.8179 1.26257 30.0805 2.82003 30.0805H5.64038V40.4206C5.64038 41.978 6.90295 43.2406 8.46041 43.2406C10.0179 43.2406 11.2804 41.978 11.2804 40.4206V30.0805ZM26.3206 23.5002C26.3206 21.9427 25.0581 20.6802 23.5006 20.6802C21.9431 20.6802 20.6806 21.9427 20.6806 23.5002V40.4204C20.6806 41.9778 21.9431 43.2404 23.5006 43.2404C25.0581 43.2404 26.3206 41.9778 26.3206 40.4204V23.5002ZM23.5006 0C25.0581 0 26.3206 1.26257 26.3206 2.82003V9.3999H29.1406C30.698 9.3999 31.9606 10.6625 31.9606 12.2199C31.9606 13.7774 30.698 15.04 29.1406 15.04H23.5337L23.5006 15.0401L23.4675 15.04H17.8605C16.303 15.04 15.0404 13.7774 15.0404 12.2199C15.0404 10.6625 16.303 9.3999 17.8605 9.3999H20.6806V2.82003C20.6806 1.26257 21.9431 0 23.5006 0ZM35.72 33.8402H32.8999C31.3425 33.8402 30.0799 32.5777 30.0799 31.0202C30.0799 29.4628 31.3425 28.2002 32.8999 28.2002H38.5401H44.18C45.7375 28.2002 47.0001 29.4628 47.0001 31.0202C47.0001 32.5777 45.7375 33.8402 44.18 33.8402H41.3601V40.4203C41.3601 41.9778 40.0975 43.2403 38.5401 43.2403C36.9826 43.2403 35.72 41.9778 35.72 40.4203V33.8402ZM38.5401 0C40.0975 0 41.3601 1.26257 41.3601 2.82003V19.7402C41.3601 21.2976 40.0975 22.5602 38.5401 22.5602C36.9826 22.5602 35.72 21.2976 35.72 19.7402V2.82003C35.72 1.26257 36.9826 0 38.5401 0Z"/>
</svg>
