<svg  viewBox="0 0 72 44" fill="none" xmlns="http://www.w3.org/2000/svg">
<path fill-rule="evenodd" clip-rule="evenodd" d="M25.0529 43.3896C27.0171 43.3896 28.6094 41.7973 28.6094 39.8331C28.6094 37.8689 27.0171 36.2766 25.0529 36.2766H12.301L33.9452 14.6324L45.6565 26.3436C46.3235 27.0106 47.2281 27.3853 48.1713 27.3853C49.1146 27.3853 50.0192 27.0106 50.6862 26.3436L70.9583 6.07146C72.3472 4.68256 72.3472 2.43069 70.9583 1.04179C69.5694 -0.347122 67.3175 -0.347122 65.9286 1.04179L48.1713 18.7991L36.4601 7.08788C35.0712 5.69896 32.8193 5.69896 31.4304 7.08788L7.27026 31.248V18.494C7.27026 16.5298 5.67796 14.9375 3.71375 14.9375C1.74953 14.9375 0.157227 16.5298 0.157227 18.494V39.8331C0.157227 41.7973 1.74953 43.3896 3.71375 43.3896H25.0529Z" fill="#E63946"/>
</svg>
