<svg viewBox="0 0 58 51" fill="none" xmlns="http://www.w3.org/2000/svg">
<path fill-rule="evenodd" clip-rule="evenodd" d="M14.4998 13.2084C14.4998 9.13531 17.7458 5.83341 21.7498 5.83341C25.7539 5.83341 28.9998 9.13531 28.9998 13.2084C28.9998 17.2815 25.7539 20.5834 21.7498 20.5834C17.7458 20.5834 14.4998 17.2815 14.4998 13.2084ZM21.7498 0.916748C15.0764 0.916748 9.6665 6.41991 9.6665 13.2084C9.6665 19.9969 15.0764 25.5001 21.7498 25.5001C28.4233 25.5001 33.8332 19.9969 33.8332 13.2084C33.8332 6.41991 28.4233 0.916748 21.7498 0.916748ZM12.0833 30C8.87863 30 5.80519 31.295 3.53913 33.6001C1.27306 35.9053 0 39.0317 0 42.2917V47.2083C0 48.566 1.08198 49.6667 2.41667 49.6667C3.75135 49.6667 4.83333 48.566 4.83333 47.2083V42.2917C4.83333 40.3357 5.59717 38.4598 6.95681 37.0768C8.31645 35.6937 10.1605 34.9167 12.0833 34.9167H31.4167C33.3395 34.9167 35.1836 35.6937 36.5432 37.0768C37.9028 38.4598 38.6667 40.3357 38.6667 42.2917V47.2083C38.6667 48.566 39.7486 49.6667 41.0833 49.6667C42.418 49.6667 43.5 48.566 43.5 47.2083V42.2917C43.5 39.0317 42.2269 35.9053 39.9609 33.6001C37.6948 31.295 34.6214 30 31.4167 30H12.0833ZM45.9933 32.5797C46.327 31.2651 47.6451 30.4746 48.9374 30.814C51.5297 31.4949 53.8263 33.0322 55.4666 35.1847C57.1068 37.3371 57.9979 39.9828 57.9999 42.7062L57.9999 47.6247C57.9999 48.9824 56.918 50.083 55.5833 50.083C54.2486 50.083 53.1666 48.9824 53.1666 47.6247L53.1666 42.7099C53.1652 41.0761 52.6306 39.4882 51.6466 38.1969C50.6624 36.9055 49.2845 35.9831 47.7291 35.5746C46.4368 35.2351 45.6597 33.8943 45.9933 32.5797ZM39.2662 1.31277C37.9732 0.976003 36.6567 1.76924 36.3256 3.08451C35.9946 4.39979 36.7744 5.73902 38.0673 6.07579C39.6268 6.48197 41.0091 7.40458 41.9962 8.69817C42.9833 9.99177 43.519 11.5828 43.519 13.2203C43.519 14.8579 42.9833 16.4489 41.9962 17.7425C41.0091 19.0361 39.6268 19.9587 38.0673 20.3649C36.7744 20.7016 35.9946 22.0409 36.3256 23.3561C36.6567 24.6714 37.9732 25.4646 39.2662 25.1279C41.8654 24.4509 44.1691 22.9132 45.8143 20.7572C47.4594 18.6012 48.3524 15.9496 48.3524 13.2203C48.3524 10.491 47.4594 7.83939 45.8143 5.68341C44.1691 3.52742 41.8654 1.98973 39.2662 1.31277Z" fill="#A8DADC"/>
</svg>
