<svg  viewBox="0 0 52 49" fill="none" xmlns="http://www.w3.org/2000/svg">
<path fill-rule="evenodd" clip-rule="evenodd" d="M16.5985 13.8888C16.4791 14.0809 16.2893 14.2188 16.0696 14.2731L0.660381 18.0783C0.0360539 18.2325 -0.209566 18.9884 0.204904 19.4801L10.4346 31.6159C10.5804 31.7889 10.6529 32.012 10.6366 32.2377L9.49388 48.0686C9.44758 48.71 10.0906 49.1772 10.6863 48.935L25.3893 42.9562C25.5989 42.8709 25.8335 42.8709 26.0431 42.9562L40.7461 48.935C41.3418 49.1772 41.9849 48.71 41.9386 48.0686L40.7958 32.2377C40.7795 32.012 40.852 31.7889 40.9979 31.6159L51.2275 19.4801C51.642 18.9884 51.3964 18.2325 50.7721 18.0783L35.3628 14.2731C35.1432 14.2188 34.9534 14.0809 34.8339 13.8888L26.4532 0.409595C26.1136 -0.136533 25.3188 -0.136531 24.9792 0.409597L16.5985 13.8888ZM25.7162 6.62022L19.9149 15.9507C19.2579 17.0076 18.214 17.766 17.0058 18.0643L6.33929 20.6984L13.4205 29.099C14.2225 30.0505 14.6212 31.2776 14.5316 32.5189L13.7406 43.4773L23.9183 39.3387C25.0711 38.8699 26.3614 38.8699 27.5141 39.3387L37.6918 43.4773L36.9008 32.5189C36.8112 31.2776 37.2099 30.0505 38.012 29.099L45.0931 20.6984L34.4266 18.0643C33.2184 17.766 32.1746 17.0076 31.5175 15.9507L25.7162 6.62022Z" fill="#EEE273"/>
</svg>
