<svg viewBox="0 0 72 44" fill="none" xmlns="http://www.w3.org/2000/svg">
<path fill-rule="evenodd" clip-rule="evenodd" d="M46.9471 0C44.9829 0 43.3906 1.59231 43.3906 3.55652C43.3906 5.52073 44.9829 7.11304 46.9471 7.11304H59.699L38.0548 28.7573L26.3435 17.046C25.6765 16.379 24.7719 16.0043 23.8287 16.0043C22.8854 16.0043 21.9808 16.379 21.3138 17.046L1.04168 37.3182C-0.347229 38.7071 -0.347229 40.959 1.04168 42.3479C2.43059 43.7368 4.68245 43.7368 6.07136 42.3479L23.8287 24.5905L35.5399 36.3018C36.9288 37.6907 39.1807 37.6907 40.5696 36.3018L64.7297 12.1416V24.8956C64.7297 26.8598 66.322 28.4522 68.2863 28.4522C70.2505 28.4522 71.8428 26.8598 71.8428 24.8956V3.55652C71.8428 1.59231 70.2505 0 68.2863 0H46.9471Z" fill="#A8DADC"/>
</svg>
