<svg  viewBox="0 0 29 23" fill="none" xmlns="http://www.w3.org/2000/svg">
<path fill-rule="evenodd" clip-rule="evenodd" d="M9.56299 0C6.45639 0 3.93799 2.57436 3.93799 5.75C3.93799 8.92564 6.45639 11.5 9.56299 11.5C12.6696 11.5 15.188 8.92564 15.188 5.75C15.188 2.57436 12.6696 0 9.56299 0ZM6.18799 5.75C6.18799 3.84462 7.69903 2.3 9.56299 2.3C11.427 2.3 12.938 3.84462 12.938 5.75C12.938 7.65538 11.4269 9.2 9.56299 9.2C7.69903 9.2 6.18799 7.65538 6.18799 5.75Z" fill="#F1FAEE"/>
<path d="M5.62549 13.8C4.13364 13.8 2.7029 14.4058 1.64801 15.4841C0.593121 16.5625 0.000488281 18.025 0.000488281 19.55V21.85C0.000488281 22.4851 0.504168 23 1.12549 23C1.74681 23 2.25049 22.4851 2.25049 21.85V19.55C2.25049 18.635 2.60607 17.7575 3.239 17.1105C3.87194 16.4635 4.73038 16.1 5.62549 16.1H13.5005C14.3956 16.1 15.254 16.4635 15.887 17.1105C16.5199 17.7575 16.8755 18.635 16.8755 19.55V21.85C16.8755 22.4851 17.3792 23 18.0005 23C18.6218 23 19.1255 22.4851 19.1255 21.85V19.55C19.1255 18.025 18.5329 16.5625 17.478 15.4841C16.4231 14.4058 14.9923 13.8 13.5005 13.8H5.62549Z" fill="#F1FAEE"/>
<path d="M24.2448 5.7407C24.2517 5.11247 23.748 4.6088 23.1198 4.6157C22.4916 4.6226 21.9767 5.13748 21.9698 5.7657L21.9381 8.64987L19.054 8.68156C18.4257 8.68847 17.9109 9.20334 17.904 9.83156C17.8971 10.4598 18.4007 10.9635 19.029 10.9566L21.9131 10.9249L21.8814 13.809C21.8745 14.4373 22.3782 14.9409 23.0064 14.934C23.6347 14.9271 24.1495 14.4123 24.1564 13.784L24.1881 10.8999L27.0723 10.8682C27.7005 10.8613 28.2154 10.3464 28.2223 9.71818C28.2292 9.08995 27.7255 8.58627 27.0973 8.59317L24.2131 8.62487L24.2448 5.7407Z" fill="#F1FAEE"/>
</svg>
