<svg  viewBox="0 0 31 31" fill="none" xmlns="http://www.w3.org/2000/svg">
<path fill-rule="evenodd" clip-rule="evenodd" d="M15.5 0C6.93959 0 0 6.93959 0 15.5C0 24.0604 6.93959 31 15.5 31C24.0604 31 31 24.0604 31 15.5C31 6.93959 24.0604 0 15.5 0ZM7.58417 5.59141C9.75371 3.85594 12.5057 2.81818 15.5 2.81818C22.504 2.81818 28.1818 8.49602 28.1818 15.5C28.1818 18.4943 27.1441 21.2463 25.4086 23.4158L7.58417 5.59141ZM5.59141 7.58417C3.85594 9.75371 2.81818 12.5057 2.81818 15.5C2.81818 22.504 8.49602 28.1818 15.5 28.1818C18.4943 28.1818 21.2463 27.1441 23.4158 25.4086L5.59141 7.58417Z" fill="#F1FAEE"/>
</svg>
