<svg  viewBox="0 0 27 23" fill="none" xmlns="http://www.w3.org/2000/svg">
<path fill-rule="evenodd" clip-rule="evenodd" d="M9.5625 2.3C7.69854 2.3 6.1875 3.84462 6.1875 5.75C6.1875 7.65538 7.69854 9.2 9.5625 9.2C11.4265 9.2 12.9375 7.65538 12.9375 5.75C12.9375 3.84462 11.4265 2.3 9.5625 2.3ZM3.9375 5.75C3.9375 2.57436 6.4559 0 9.5625 0C12.6691 0 15.1875 2.57436 15.1875 5.75C15.1875 8.92564 12.6691 11.5 9.5625 11.5C6.4559 11.5 3.9375 8.92564 3.9375 5.75ZM19.4545 6.08683C19.8938 5.63772 20.6062 5.63772 21.0455 6.08683L23.0625 8.14865L25.0795 6.08683C25.5188 5.63772 26.2312 5.63772 26.6705 6.08683C27.1098 6.53593 27.1098 7.26407 26.6705 7.71317L24.6535 9.775L26.6705 11.8368C27.1098 12.2859 27.1098 13.0141 26.6705 13.4632C26.2312 13.9123 25.5188 13.9123 25.0795 13.4632L23.0625 11.4013L21.0455 13.4632C20.6062 13.9123 19.8938 13.9123 19.4545 13.4632C19.0152 13.0141 19.0152 12.2859 19.4545 11.8368L21.4715 9.775L19.4545 7.71317C19.0152 7.26407 19.0152 6.53593 19.4545 6.08683ZM1.64752 15.4841C2.70242 14.4058 4.13316 13.8 5.625 13.8H13.5C14.9918 13.8 16.4226 14.4058 17.4775 15.4841C18.5324 16.5625 19.125 18.025 19.125 19.55V21.85C19.125 22.4851 18.6213 23 18 23C17.3787 23 16.875 22.4851 16.875 21.85V19.55C16.875 18.635 16.5194 17.7575 15.8865 17.1105C15.2536 16.4635 14.3951 16.1 13.5 16.1H5.625C4.72989 16.1 3.87145 16.4635 3.23851 17.1105C2.60558 17.7575 2.25 18.635 2.25 19.55V21.85C2.25 22.4851 1.74632 23 1.125 23C0.50368 23 0 22.4851 0 21.85V19.55C0 18.025 0.592633 16.5625 1.64752 15.4841Z" fill="#F1FAEE"/>
</svg>
