<svg viewBox="0 0 23 23" fill="none" xmlns="http://www.w3.org/2000/svg">
<path d="M22.0376 0.962362C23.3208 2.24552 23.3208 4.32591 22.0376 5.60907L16.1467 11.5L22.0376 17.3909C23.3208 18.6741 23.3208 20.7545 22.0376 22.0376C20.7545 23.3208 18.6741 23.3208 17.3909 22.0376L11.5 16.1467L5.60906 22.0376C4.32591 23.3208 2.24551 23.3208 0.962363 22.0376C-0.32079 20.7545 -0.32079 18.6741 0.962363 17.3909L6.85329 11.5L0.962363 5.60907C-0.320789 4.32591 -0.320789 2.24552 0.962363 0.962361C2.24551 -0.320788 4.32591 -0.320788 5.60906 0.962362L11.5 6.85329L17.3909 0.962362C18.6741 -0.320788 20.7545 -0.320788 22.0376 0.962362Z" fill="#F1FAEE"/>
</svg>
