<svg viewBox="0 0 20 20" xmlns="http://www.w3.org/2000/svg">
<path  d="M9.29289 0.292893C9.68342 -0.0976311 10.3166 -0.0976311 10.7071 0.292893L15.7071 5.29289C16.0976 5.68342 16.0976 6.31658 15.7071 6.70711C15.3166 7.09763 14.6834 7.09763 14.2929 6.70711L11 3.41421V12.5C11 13.0523 10.5523 13.5 10 13.5C9.44771 13.5 9 13.0523 9 12.5V3.41421L5.70711 6.70711C5.31658 7.09763 4.68342 7.09763 4.29289 6.70711C3.90237 6.31658 3.90237 5.68342 4.29289 5.29289L9.29289 0.292893ZM1 12C1.55228 12 2 12.4477 2 13V17C2 17.5477 2.45228 18 3 18H17C17.2652 18 17.5196 17.8946 17.7071 17.7071C17.8946 17.5196 18 17.2652 18 17V13C18 12.4477 18.4477 12 19 12C19.5523 12 20 12.4477 20 13V17C20 17.7957 19.6839 18.5587 19.1213 19.1213C18.5587 19.6839 17.7957 20 17 20H3C1.34772 20 0 18.6523 0 17V13C0 12.4477 0.447715 12 1 12Z" />
</svg>
