<svg width="61" height="37" viewBox="0 0 61 37" fill="none" xmlns="http://www.w3.org/2000/svg">
<g id="Group 239">
<path id="Union" fill-rule="evenodd" clip-rule="evenodd" d="M40.0938 0C38.4462 0 37.1106 1.33562 37.1106 2.98318C37.1106 4.63075 38.4462 5.96636 40.0938 5.96636H50.7903L32.6352 24.1215L22.8119 14.2982C22.2524 13.7388 21.4936 13.4245 20.7024 13.4245C19.9113 13.4245 19.1525 13.7388 18.593 14.2982L1.58889 31.3024C0.423882 32.4674 0.423882 34.3562 1.58889 35.5212C2.75389 36.6862 4.64274 36.6862 5.80774 35.5212L20.7024 20.6265L30.5257 30.4498C31.6907 31.6148 33.5796 31.6148 34.7446 30.4498L55.0097 10.1847V20.8823C55.0097 22.5298 56.3453 23.8654 57.9929 23.8654C59.6405 23.8654 60.9761 22.5298 60.9761 20.8823V2.98318C60.9761 1.33562 59.6405 0 57.9929 0H40.0938Z" fill="#A8DADC"/>
</g>
</svg>
