<svg width="46" height="48" viewBox="0 0 46 48" fill="none" xmlns="http://www.w3.org/2000/svg">
<path fill-rule="evenodd" clip-rule="evenodd" d="M2.51784 2.69519C4.02198 1.21648 6.06202 0.385742 8.18918 0.385742H17.3554C19.2538 0.385742 20.7928 1.89869 20.7928 3.76501C20.7928 5.63133 19.2538 7.14428 17.3554 7.14428H8.18918C7.8853 7.14428 7.59386 7.26295 7.37899 7.4742C7.16411 7.68544 7.0434 7.97195 7.0434 8.2707V39.8105C7.0434 40.4223 7.56685 40.9369 8.18918 40.9369H17.3554C19.2538 40.9369 20.7928 42.4499 20.7928 44.3162C20.7928 46.1825 19.2538 47.6955 17.3554 47.6955H8.18918C3.77006 47.6955 0.168701 44.155 0.168701 39.8105V8.2707C0.168701 6.17948 1.01371 4.17391 2.51784 2.69519ZM28.6743 10.3869C30.0166 9.0672 32.193 9.0672 33.5354 10.3869L44.9932 21.6511C46.3356 22.9708 46.3356 25.1104 44.9932 26.4301L33.5354 37.6943C32.193 39.014 30.0166 39.014 28.6743 37.6943C27.3319 36.3747 27.3319 34.235 28.6743 32.9153L34.2642 27.4199H15.0639C13.1655 27.4199 11.6265 25.9069 11.6265 24.0406C11.6265 22.1743 13.1655 20.6613 15.0639 20.6613H34.2642L28.6743 15.1659C27.3319 13.8462 27.3319 11.7066 28.6743 10.3869Z" fill="#A8DADC"/>
</svg>
