<svg width="111" height="103" viewBox="0 0 111 103" fill="none" xmlns="http://www.w3.org/2000/svg">
<path d="M32.5362 22.9777C35.6077 22.9777 38.4726 23.8637 41.1307 25.6358C43.8479 27.4078 46.0334 29.8001 47.6873 32.8126C49.3413 35.8251 50.1682 39.1921 50.1682 42.9134C50.1682 46.5757 49.3413 49.9131 47.6873 52.9256C46.0334 55.9381 43.8479 58.3599 41.1307 60.1911C38.4726 61.9631 35.6077 62.8492 32.5362 62.8492H16.2332L17.1192 61.2543V79.5952C17.1192 81.131 16.6466 82.4305 15.7015 83.4937C14.7564 84.4979 13.516 85 11.9802 85C10.5035 85 9.29256 84.4979 8.34745 83.4937C7.40235 82.4305 6.9298 81.131 6.9298 79.5952V28.3825C6.9298 26.8467 7.43189 25.5767 8.43606 24.5725C9.4993 23.5093 10.7988 22.9777 12.3346 22.9777H32.5362ZM32.5362 52.7484C33.6585 52.7484 34.7513 52.2758 35.8145 51.3307C36.8777 50.3856 37.7638 49.1747 38.4726 47.698C39.1814 46.1622 39.5358 44.5673 39.5358 42.9134C39.5358 41.2004 39.1814 39.6056 38.4726 38.1288C37.7638 36.6521 36.8777 35.4707 35.8145 34.5847C34.7513 33.6396 33.6585 33.167 32.5362 33.167H16.0559L17.1192 31.5722V54.166L16.1445 52.7484H32.5362Z" fill="#F1FAEE"/>
<path d="M79.1007 36.7112C81.5816 36.7112 83.8557 37.0951 85.9231 37.863C87.9906 38.6309 89.7626 39.6056 91.2393 40.7869C92.7751 41.9683 93.9565 43.1792 94.7835 44.4197C95.6695 45.601 96.1125 46.6052 96.1125 47.4322L93.8088 48.584V42.116C93.8088 40.5802 94.3109 39.3102 95.3151 38.306C96.3193 37.2428 97.5892 36.7112 99.125 36.7112C100.661 36.7112 101.931 37.2133 102.935 38.2174C103.939 39.2216 104.441 40.5211 104.441 42.116V81.5445C104.441 86.6835 103.319 90.7888 101.074 93.8603C98.8888 96.991 95.9944 99.2356 92.3912 100.594C88.788 102.012 84.919 102.721 80.7841 102.721C79.6028 102.721 78.067 102.573 76.1768 102.278C74.2866 101.982 72.485 101.628 70.772 101.214C69.059 100.801 67.7595 100.417 66.8734 100.063C65.1014 99.2947 63.8609 98.32 63.1521 97.1387C62.5023 96.0163 62.3842 94.8054 62.7977 93.5059C63.3293 91.7929 64.1858 90.6115 65.3672 89.9618C66.5485 89.3711 67.789 89.312 69.0885 89.7846C69.6792 89.9618 70.6538 90.3162 72.0124 90.8478C73.371 91.3794 74.8477 91.852 76.4426 92.2655C78.0965 92.738 79.5437 92.9743 80.7841 92.9743C85.2143 92.9743 88.4926 92.0883 90.6191 90.3162C92.7456 88.5441 93.8088 86.0928 93.8088 82.9621V75.2536L94.8721 76.0511C94.8721 76.819 94.4586 77.7641 93.6316 78.8864C92.8637 79.9496 91.771 81.0128 90.3533 82.0761C88.9947 83.1393 87.3703 84.0549 85.4801 84.8228C83.5899 85.5316 81.5816 85.886 79.4551 85.886C75.2612 85.886 71.4808 84.8523 68.1139 82.7849C64.7469 80.6584 62.0888 77.7641 60.1396 74.1018C58.1903 70.3804 57.2157 66.1275 57.2157 61.3429C57.2157 56.4993 58.1903 52.2463 60.1396 48.584C62.0888 44.8627 64.7174 41.9683 68.0253 39.9009C71.3331 37.7744 75.0249 36.7112 79.1007 36.7112ZM80.7841 46.4575C78.126 46.4575 75.7928 47.1073 73.7845 48.4068C71.7761 49.7063 70.2108 51.4784 69.0885 53.723C67.9662 55.9676 67.405 58.5076 67.405 61.3429C67.405 64.1191 67.9662 66.6296 69.0885 68.8742C70.2108 71.1188 71.7761 72.8909 73.7845 74.1904C75.7928 75.4899 78.126 76.1397 80.7841 76.1397C83.5013 76.1397 85.8641 75.4899 87.8724 74.1904C89.8808 72.8909 91.4461 71.1188 92.5684 68.8742C93.6907 66.6296 94.2519 64.1191 94.2519 61.3429C94.2519 58.5076 93.6907 55.9676 92.5684 53.723C91.4461 51.4784 89.8808 49.7063 87.8724 48.4068C85.8641 47.1073 83.5013 46.4575 80.7841 46.4575Z" fill="#E63946"/>
<circle cx="40.7954" cy="84.8928" r="7.32174" fill="#A8DADC"/>
</svg>
