<svg width="48" height="48" viewBox="0 0 48 48" fill="none" xmlns="http://www.w3.org/2000/svg">
<path fill-rule="evenodd" clip-rule="evenodd" d="M23.8779 4.68663C20.4559 4.68663 17.1741 6.04601 14.7543 8.46573C12.3346 10.8854 10.9752 14.1673 10.9752 17.5893V28.3415C10.9752 29.8645 10.5713 31.3459 9.82284 32.6424H37.9329C37.1844 31.3459 36.7805 29.8645 36.7805 28.3415V17.5893C36.7805 14.1673 35.4212 10.8854 33.0014 8.46573C30.5817 6.04601 27.2999 4.68663 23.8779 4.68663ZM45.3823 32.6424C44.2416 32.6424 43.1477 32.1893 42.3411 31.3827C41.5346 30.5761 41.0814 29.4822 41.0814 28.3415V17.5893C41.0814 13.0266 39.2689 8.65083 36.0426 5.42454C32.8163 2.19825 28.4405 0.385742 23.8779 0.385742C19.3152 0.385742 14.9394 2.19825 11.7132 5.42454C8.48686 8.65083 6.67435 13.0266 6.67435 17.5893V28.3415C6.67435 29.4822 6.22122 30.5761 5.41465 31.3827C4.60808 32.1893 3.51413 32.6424 2.37346 32.6424C1.18581 32.6424 0.223022 33.6052 0.223022 34.7928C0.223022 35.9805 1.18581 36.9433 2.37346 36.9433H45.3823C46.57 36.9433 47.5328 35.9805 47.5328 34.7928C47.5328 33.6052 46.57 32.6424 45.3823 32.6424ZM19.0786 41.5345C20.1059 40.9385 21.4218 41.2882 22.0178 42.3156C22.2068 42.6414 22.4781 42.9119 22.8046 43.1C23.131 43.288 23.5012 43.387 23.8779 43.387C24.2546 43.387 24.6247 43.288 24.9512 43.1C25.2777 42.9119 25.549 42.6414 25.738 42.3156C26.334 41.2882 27.6499 40.9385 28.6772 41.5345C29.7045 42.1304 30.0542 43.4463 29.4583 44.4736C28.8912 45.4512 28.0772 46.2627 27.0978 46.8268C26.1185 47.3909 25.0081 47.6879 23.8779 47.6879C22.7477 47.6879 21.6373 47.3909 20.6579 46.8268C19.6786 46.2627 18.8646 45.4512 18.2975 44.4736C17.7016 43.4463 18.0513 42.1304 19.0786 41.5345Z" fill="#A8DADC"/>
</svg>
